<svg version="1.1" xmlns="http://www.w3.org/2000/svg">
	<g id="svg-headphones">
		<path d="M12.5 1.563C5.592 1.563 0 7.153 0 14.063v2.511a.781.781 0 0 0 .401.683l1.162.648c0 .022-.001.043-.001.065 0 3.02 2.448 5.469 5.469 5.469h1.172c.647 0 1.172-.525 1.172-1.172V13.672c0-.647-.525-1.172-1.172-1.172h-1.172c-2.426 0-4.482 1.579-5.198 3.766L1.563 16.115V14.063C1.563 8.018 6.454 3.125 12.5 3.125c6.045 0 10.938 4.892 10.938 10.938v2.052l-.271.151C22.451 14.079 20.394 12.5 17.969 12.5h-1.172c-.647 0-1.172.525-1.172 1.172v8.594c0 .647.525 1.172 1.172 1.172h1.172c3.02 0 5.469-2.448 5.469-5.469 0-.022-.001-.043-.001-.065l1.162-.648A.781.781 0 0 0 25 16.574V14.063c0-6.908-5.591-12.5-12.5-12.5ZM7.031 14.063h.781v7.813h-.781c-2.154 0-3.906-1.752-3.906-3.906s1.752-3.906 3.906-3.906Zm10.938 7.813h-.781V14.063h.781c2.154 0 3.906 1.752 3.906 3.906s-1.752 3.906-3.906 3.906Z"></path>
	</g>
	<g id="svg-play">
		<path d="M22.5422,13.6714,7.5256,4.1563A.9914.9914,0,0,0,6,4.9854V24.0146a.9914.9914,0,0,0,1.5256.8291l15.0167-9.5151A.9788.9788,0,0,0,22.5422,13.6714ZM7,24.0146l-.004-19.01,15.011,9.4795Z" />
	</g>
	<g id="svg-pause">
		<path d="M9.5,4h-3A1.5,1.5,0,0,0,5,5.5v18A1.5,1.5,0,0,0,6.5,25h3A1.5,1.5,0,0,0,11,23.5V5.5A1.5,1.5,0,0,0,9.5,4ZM10,23.5a.5.5,0,0,1-.5.5h-3a.5.5,0,0,1-.5-.5V5.5A.5.5,0,0,1,6.5,5h3a.5.5,0,0,1,.5.5ZM18.5,4h-3A1.5,1.5,0,0,0,14,5.5v18A1.5,1.5,0,0,0,15.5,25h3A1.5,1.5,0,0,0,20,23.5V5.5A1.5,1.5,0,0,0,18.5,4ZM19,23.5a.5.5,0,0,1-.5.5h-3a.5.5,0,0,1-.5-.5V5.5a.5.5,0,0,1,.5-.5h3a.5.5,0,0,1,.5.5Z" />
	</g>
	<g id="svg-star">
		<path d="M23.58,8.2483,15.9072,7.01,12.4456.2715a.5.5,0,0,0-.8892,0L8.0947,7.01.42,8.2485a.5.5,0,0,0-.2563.8629l5.8228,5.2209L4.39,22.3987a.4986.4986,0,0,0,.72.5414L11.9736,19.4l6.8638,3.5435a.4986.4986,0,0,0,.72-.5386l-1.551-8.0777,5.8293-5.2154A.5.5,0,0,0,23.58,8.2483Zm-6.24,5.3333-.4221.3777.1068.5562,1.357,7.0671L12.4324,18.511l-.4586-.2368-.4586.2366L5.5719,21.5764l1.3958-7.05.1106-.5586-.424-.38-5.04-4.519,6.64-1.072.4991-.0806.231-.45,3.0167-5.8721,3.0168,5.8721.231.45.4991.0806,6.6368,1.0715Z" />
	</g>
	<g id="svg-star-filled">
		<path d="M23.8361,9.1112l-5.8293,5.2154,1.551,8.0777a.5.5,0,0,1-.72.5386l-6.8638-3.5435L5.1094,22.94a.5.5,0,0,1-.72-.5414l1.597-8.0665L.1639,9.1111A.5.5,0,0,1,.42,8.2482l7.6745-1.239L11.5563.2712a.5.5,0,0,1,.8892,0l3.4617,6.738L23.58,8.248A.5.5,0,0,1,23.8361,9.1112Z" />
	</g>
	<g id="svg-cog">
		<path d="M24.2755,10.5523,22.22,9.9634a.4887.4887,0,0,1-.3317-.3317,9.7772,9.7772,0,0,0-.72-1.7461.4865.4865,0,0,1,.0014-.4669L22.2017,5.56a1,1,0,0,0-.1673-1.1923L20.6325,2.9655A1,1,0,0,0,19.44,2.7982L17.5806,3.83a.4861.4861,0,0,1-.4673.0009,9.7558,9.7558,0,0,0-1.7455-.72.4889.4889,0,0,1-.3312-.3318L14.4478.7245A1,1,0,0,0,13.4865,0H11.5135a1,1,0,0,0-.9613.7245L9.9634,2.7793a.4892.4892,0,0,1-.3317.3318,9.7455,9.7455,0,0,0-1.7451.72.4867.4867,0,0,1-.4674-.001L5.56,2.7982a1,1,0,0,0-1.1923.1674L2.9656,4.3674A1,1,0,0,0,2.7983,5.56L3.83,7.4195a.4863.4863,0,0,1,.0007.4675,9.73,9.73,0,0,0-.72,1.745.4891.4891,0,0,1-.3318.3315l-2.0546.5887A1,1,0,0,0,0,11.5135v1.9727a1,1,0,0,0,.7245.9613l2.0551.5889a.4887.4887,0,0,1,.3318.3318,9.7745,9.7745,0,0,0,.72,1.7459.4867.4867,0,0,1-.0013.4669L2.7983,19.44a1,1,0,0,0,.1674,1.1922l1.4018,1.4019a1,1,0,0,0,1.1923.1674L7.4192,21.17a.4867.4867,0,0,1,.4674-.0009,9.7445,9.7445,0,0,0,1.745.72.4894.4894,0,0,1,.3317.3318l.5891,2.055A1,1,0,0,0,11.5136,25h1.9727a1,1,0,0,0,.9613-.7245l.5888-2.0546a.4891.4891,0,0,1,.3315-.3318,9.7532,9.7532,0,0,0,1.7455-.72.4866.4866,0,0,1,.4673.001L19.44,22.2017a1,1,0,0,0,1.1923-.1673l1.4019-1.4019a1,1,0,0,0,.1673-1.1922L21.17,17.5807a.4866.4866,0,0,1-.0009-.4673,9.7607,9.7607,0,0,0,.72-1.7456.4892.4892,0,0,1,.3318-.3315l2.0546-.5888A1,1,0,0,0,25,13.4863V11.5136A1,1,0,0,0,24.2755,10.5523ZM12.5,17A4.5,4.5,0,1,1,17,12.5,4.5,4.5,0,0,1,12.5,17Z"/>
	</g>
</svg>
